G04 start of page 2 for group 0 idx 0 *
G04 Title: (unknown), top *
G04 Creator: pcb 20110918 *
G04 CreationDate: Sun 05 Oct 2014 04:27:27 PM GMT UTC *
G04 For: kyle *
G04 Format: Gerber/RS-274X *
G04 PCB-Dimensions: 300000 300000 *
G04 PCB-Coordinate-Origin: lower left *
%MOIN*%
%FSLAX25Y25*%
%LNTOP*%
%ADD368C,0.0780*%
%ADD367C,0.0400*%
%ADD366C,0.1300*%
%ADD365C,0.0300*%
%ADD364C,0.0380*%
%ADD363C,0.0280*%
%ADD362C,0.0350*%
%ADD361C,0.1450*%
%ADD360C,0.1750*%
%ADD359C,0.1800*%
%ADD358C,0.1150*%
%ADD357C,0.0700*%
%ADD356C,0.1500*%
%ADD355C,0.0850*%
%ADD354C,0.0800*%
%ADD353C,0.0650*%
%ADD352C,0.0900*%
%ADD351C,0.0001*%
%ADD350C,0.0600*%
%ADD349C,0.0150*%
%ADD348C,0.0250*%
%ADD347C,0.0500*%
%ADD346C,0.0100*%
G54D346*X0Y300000D02*Y0D01*
Y300000D02*X300000D01*
X0Y0D02*X300000D01*
Y300000D02*Y0D01*
G54D347*X47500Y240000D02*Y235000D01*
X43500Y231000D01*
X31500D01*
X19000Y218500D01*
X17500Y267500D02*Y240000D01*
X25000Y275000D02*X17500Y267500D01*
X42500Y275000D02*X25000D01*
X49000Y218500D02*X54000D01*
X66500Y231000D01*
Y244000D01*
X67500Y245000D01*
Y248000D01*
X72000Y252500D01*
X84500D01*
X95000Y242000D01*
X83500Y252500D02*X96000Y265000D01*
X95000Y222500D02*Y242000D01*
X135750Y214750D02*X138000Y217000D01*
X102750Y214750D02*X135750D01*
X95000Y222500D02*X102500Y215000D01*
G54D348*X198000Y284000D02*X184000D01*
X208000Y245000D02*X189500Y226500D01*
X208000Y284000D02*Y245000D01*
X189000Y226500D02*Y222000D01*
Y226500D02*X188500D01*
X184000Y284000D02*X183500Y283500D01*
X229500Y272500D02*X218000Y284000D01*
X208500Y283500D02*X230000Y262000D01*
X208000Y283500D02*X208500D01*
X230000Y257000D02*Y256500D01*
Y262500D02*Y247000D01*
G54D346*X274500D02*X275000Y247500D01*
G54D348*X260000Y247000D02*X274500D01*
G54D349*X275000Y237500D02*X260000D01*
X275000Y227500D02*X258000D01*
X275000Y217500D02*X257500D01*
X275000Y207500D02*X255500D01*
X260000Y237500D02*X216500Y194000D01*
X258000Y227500D02*X218000Y187500D01*
X257500Y217500D02*X222000Y182000D01*
X255500Y207500D02*X224500Y176500D01*
X275000Y157500D02*X260500Y172000D01*
X275000Y147500D02*X255500Y167000D01*
X275000Y137500D02*X251000Y161500D01*
G54D348*X291000Y81000D02*Y264000D01*
X283500Y263500D02*Y93000D01*
X277500Y87500D02*X242500D01*
X291000Y264000D02*X282500Y272500D01*
X229500D01*
X267000Y267500D02*X279500D01*
X283500Y263500D01*
X261500Y262000D02*X267000Y267500D01*
X230000Y262000D02*X261500D01*
G54D349*X240500Y144500D02*Y134000D01*
X247000Y127500D01*
X275000D01*
G54D348*X283500Y93000D02*X278000Y87500D01*
X283500Y126000D02*X275000Y117500D01*
G54D349*X230500Y123000D02*X232500Y121000D01*
X230500Y144500D02*Y123000D01*
G54D348*X232500Y98000D02*X232250Y97750D01*
X232500Y121000D02*Y98000D01*
X242500Y87500D02*X232500Y97500D01*
G54D349*X59000Y141000D02*Y125500D01*
X58500Y125000D01*
X49000Y141000D02*Y125500D01*
X48500Y125000D01*
X64000Y116500D02*Y126000D01*
X67500Y124500D02*Y114000D01*
X39000Y141000D02*Y125500D01*
X38500Y125000D01*
X29000Y141000D02*Y125500D01*
X28500Y125000D01*
X19000Y141000D02*Y125500D01*
X18500Y125000D01*
X80000Y152000D02*X69000Y141000D01*
X67500Y124500D02*X74000Y131000D01*
X79000D01*
X64000Y126000D02*X79000Y141000D01*
X73500Y120500D02*X77500Y124500D01*
X136500Y130500D02*X158500D01*
X169000Y141000D01*
X100000Y110000D02*X116000D01*
X136500Y130500D01*
X102500Y103500D02*X131000D01*
G54D348*X109000Y126000D02*X103500Y120500D01*
X109000Y132000D02*Y126000D01*
Y141000D02*Y130000D01*
G54D349*X131000Y103500D02*X150500Y123000D01*
G54D348*X138500Y85000D02*X142500Y81000D01*
X138500Y85000D02*Y96500D01*
X149500Y107500D01*
G54D349*X150500Y123000D02*X161000D01*
X179000Y141000D01*
X194000Y145500D02*Y110000D01*
X215500Y88500D01*
X88500Y95000D02*Y98500D01*
X100000Y110000D01*
X98500Y95000D02*Y99500D01*
X102500Y103500D01*
X83500Y111000D02*X104000Y131500D01*
X77500Y124500D02*X90500D01*
X99000Y133000D01*
X104000Y131500D02*Y149000D01*
X99000Y133000D02*Y141000D01*
X104000Y149000D02*X101000Y152000D01*
X80000D01*
X79000Y131000D02*X89000Y141000D01*
X85000Y17500D02*Y30000D01*
X83500Y31500D01*
X75000Y17500D02*Y23500D01*
X73500Y25000D01*
X95000Y17500D02*Y16500D01*
X86500Y8000D01*
X115000Y17500D02*Y11000D01*
X108500Y4500D01*
X59000Y8000D02*X53500Y13500D01*
X57000Y4500D02*X43500Y18000D01*
X83500Y31500D02*Y111000D01*
X73500Y25000D02*Y107500D01*
X53500Y13500D02*Y99000D01*
X43500Y18000D02*Y99500D01*
X59500Y115500D01*
X63000D01*
X64000Y116500D01*
X53500Y98500D02*Y100000D01*
X67500Y114000D01*
X73500Y107000D02*Y120500D01*
X86500Y8000D02*X59000D01*
X108500Y4500D02*X57000D01*
G54D348*X268000D02*X199500D01*
X274000Y10500D02*X268000Y4500D01*
G54D349*X210000Y25000D02*X220000Y15000D01*
G54D348*X190000Y22500D02*X197500Y30000D01*
X190000Y15000D02*Y22500D01*
Y15000D02*Y15500D01*
X199500Y4500D02*X190000Y14000D01*
X283500Y32500D02*X274250Y23250D01*
X283500Y93500D02*Y32500D01*
X274000Y23000D02*Y10500D01*
X142500Y81000D02*X205500D01*
G54D349*X215500Y88500D02*Y42000D01*
X210000Y36500D01*
Y25000D01*
G54D348*X167000Y217000D02*X172500Y222500D01*
Y242500D01*
X158000Y217000D02*X167000D01*
G54D349*X216500Y194000D02*X86000D01*
X218000Y187500D02*X82500D01*
X222000Y182000D02*X78000D01*
G54D348*X125500Y207500D02*X119000Y201000D01*
X169500Y207500D02*X125500D01*
X172500Y242500D02*X183500Y253500D01*
X213000Y210000D02*X219000Y204000D01*
X201000Y210000D02*X213000D01*
X189000Y222000D02*X201000Y210000D01*
X188500Y226500D02*X169500Y207500D01*
G54D349*X86000Y194000D02*X79000Y201000D01*
X82500Y187500D02*X69000Y201000D01*
X78000Y182000D02*X59000Y201000D01*
X73500Y176500D02*X49000Y201000D01*
X68000Y172000D02*X39000Y201000D01*
X63000Y167000D02*X29000Y201000D01*
X58500Y161500D02*X19000Y201000D01*
X224500Y176500D02*X73500D01*
X260500Y172000D02*X68000D01*
X255500Y167000D02*X63000D01*
X251000Y161500D02*X58500D01*
X149000Y141000D02*Y145000D01*
X154500Y150500D01*
G54D348*X117000Y122000D02*X109000Y130000D01*
X219000Y156000D02*Y153500D01*
X124500Y156000D02*X124250Y155750D01*
X196500Y156000D02*X124500D01*
X202000Y150500D02*X196500Y156000D01*
X219000Y153500D02*X216000Y150500D01*
G54D349*X154500D02*X189000D01*
X194000Y145500D01*
G54D346*X230000Y144000D02*X230500Y144500D01*
G54D348*X216000Y150500D02*X202000D01*
X124500Y156000D02*X109000Y140500D01*
G54D350*X149000Y141000D03*
X159000D03*
X169000D03*
X179000D03*
X199000D03*
X209000D03*
Y201000D03*
X199000D03*
X189000D03*
X179000D03*
X169000D03*
X159000D03*
X149000D03*
X139000D03*
G54D351*G36*
X134000Y221000D02*Y213000D01*
X142000D01*
Y221000D01*
X134000D01*
G37*
G54D352*X158000Y217000D03*
G54D350*X189000Y141000D03*
G54D353*X250500Y144500D03*
X240500D03*
X230500D03*
G54D351*G36*
X272000Y110500D02*Y104500D01*
X278000D01*
Y110500D01*
X272000D01*
G37*
G54D354*X169500Y107500D03*
X149500D03*
G54D350*X275000Y117500D03*
Y127500D03*
Y137500D03*
Y147500D03*
G54D354*X252500Y121000D03*
X232500D03*
G54D350*X275000Y157500D03*
Y167500D03*
Y177500D03*
Y187500D03*
Y197500D03*
Y207500D03*
Y217500D03*
Y227500D03*
Y237500D03*
Y247500D03*
Y257500D03*
G54D351*G36*
X227250Y249750D02*Y244250D01*
X232750D01*
Y249750D01*
X227250D01*
G37*
G36*
X186000Y229500D02*Y223500D01*
X192000D01*
Y229500D01*
X186000D01*
G37*
G54D350*X204000Y226500D03*
X260000Y247000D03*
G54D355*X148000Y217000D03*
G54D356*Y284000D03*
G54D351*G36*
X180000Y257000D02*Y250000D01*
X187000D01*
Y257000D01*
X180000D01*
G37*
G54D357*X183500Y283500D03*
G54D351*G36*
X195000Y287000D02*Y281000D01*
X201000D01*
Y287000D01*
X195000D01*
G37*
G54D350*X208000Y284000D03*
X218000D03*
X99000Y141000D03*
X109000D03*
X119000D03*
X129000D03*
X139000D03*
G54D354*X137000Y122000D03*
X117000D03*
G54D350*X49000Y141000D03*
X59000D03*
X69000D03*
X79000D03*
G54D351*G36*
X16000Y144000D02*Y138000D01*
X22000D01*
Y144000D01*
X16000D01*
G37*
G54D350*X29000Y141000D03*
X39000D03*
X89000D03*
G54D351*G36*
X70250Y123750D02*Y117250D01*
X76750D01*
Y123750D01*
X70250D01*
G37*
G54D357*X103500Y120500D03*
G54D351*G36*
X15500Y128000D02*Y122000D01*
X21500D01*
Y128000D01*
X15500D01*
G37*
G54D350*X28500Y125000D03*
X38500D03*
X48500D03*
X58500D03*
X129000Y201000D03*
X119000D03*
X109000D03*
X99000D03*
G54D351*G36*
X93000Y268000D02*Y262000D01*
X99000D01*
Y268000D01*
X93000D01*
G37*
G54D350*X111000Y265000D03*
G54D354*X115000Y232500D03*
X95000D03*
G54D350*X89000Y201000D03*
X79000D03*
X69000D03*
X59000D03*
X49000D03*
G54D357*X47500Y240000D03*
G54D351*G36*
X44750Y222750D02*Y214250D01*
X53250D01*
Y222750D01*
X44750D01*
G37*
G36*
X62250Y250250D02*Y239750D01*
X72750D01*
Y250250D01*
X62250D01*
G37*
G54D358*X67500Y215000D03*
G54D351*G36*
X57250Y280250D02*Y269750D01*
X67750D01*
Y280250D01*
X57250D01*
G37*
G54D350*X39000Y201000D03*
G54D351*G36*
X37250Y280250D02*Y269750D01*
X47750D01*
Y280250D01*
X37250D01*
G37*
G54D350*X29000Y201000D03*
X19000D03*
G54D351*G36*
X14000Y243500D02*Y236500D01*
X21000D01*
Y243500D01*
X14000D01*
G37*
G54D352*X19000Y218500D03*
G54D351*G36*
X257000Y18000D02*Y12000D01*
X263000D01*
Y18000D01*
X257000D01*
G37*
G54D350*X250000Y15000D03*
X240000D03*
X230000D03*
X220000D03*
X210000D03*
X200000D03*
X190000D03*
X180000D03*
G54D351*G36*
X62000Y20500D02*Y14500D01*
X68000D01*
Y20500D01*
X62000D01*
G37*
G54D350*X75000Y17500D03*
X85000D03*
X95000D03*
X105000D03*
X115000D03*
G54D351*G36*
X165500Y98000D02*Y92000D01*
X171500D01*
Y98000D01*
X165500D01*
G37*
G54D350*X158500Y95000D03*
X148500D03*
X138500D03*
X128500D03*
X118500D03*
X108500D03*
X98500D03*
X88500D03*
X78500D03*
X68500D03*
X58500D03*
X48500D03*
X38500D03*
X28500D03*
X18500D03*
Y35000D03*
X28500D03*
X38500D03*
X48500D03*
X58500D03*
X68500D03*
X78500D03*
X88500D03*
X98500D03*
X108500D03*
X118500D03*
X128500D03*
X138500D03*
X148500D03*
X158500D03*
X168500D03*
G54D354*X217500Y30500D03*
X197500D03*
G54D359*X287500Y287500D03*
G54D360*Y12500D03*
G54D350*X291000Y81000D03*
G54D353*X219000Y156000D03*
Y204000D03*
G54D359*X12500Y287500D03*
Y12500D03*
G54D350*X205500Y81000D03*
G54D361*G54D362*G54D361*G54D362*G54D363*G54D350*G54D363*G54D364*G54D362*G54D364*G54D362*G54D364*G54D365*G54D350*G54D366*G54D367*G54D364*G54D363*G54D362*G54D363*G54D365*G54D364*G54D363*G54D365*G54D362*G54D363*G54D367*G54D350*G54D357*G54D368*G54D363*G54D368*G54D363*G54D367*G54D347*G54D364*G54D363*G54D362*M02*
