G04 start of page 8 for group -4079 idx -4079 *
G04 Title: (unknown), topsilk *
G04 Creator: pcb 20110918 *
G04 CreationDate: Sun 05 Oct 2014 04:27:27 PM GMT UTC *
G04 For: kyle *
G04 Format: Gerber/RS-274X *
G04 PCB-Dimensions: 300000 300000 *
G04 PCB-Coordinate-Origin: lower left *
%MOIN*%
%FSLAX25Y25*%
%LNTOPSILK*%
%ADD426C,0.0200*%
%ADD425C,0.0300*%
%ADD424C,0.0250*%
%ADD423C,0.0100*%
G54D423*X0Y300000D02*Y0D01*
Y300000D02*X300000D01*
X0Y0D02*X300000D01*
Y300000D02*Y0D01*
G54D424*X73500Y290000D02*X32500D01*
G54D423*X53000D02*Y257500D01*
G54D424*X32500D02*X73500D01*
X32500Y290000D02*Y257500D01*
X73500D02*Y290000D01*
G54D423*X36000Y253000D02*X38000D01*
X37000Y254000D02*Y252000D01*
X39200Y254200D02*X40000Y255000D01*
Y251000D01*
X39200D02*X40700D01*
X41900Y254500D02*X42400Y255000D01*
X43900D01*
X44400Y254500D01*
Y253500D01*
X41900Y251000D02*X44400Y253500D01*
X41900Y251000D02*X44400D01*
X45600Y255000D02*X46600Y251000D01*
X47600Y255000D01*
X55000Y297200D02*X56300D01*
X55650D02*Y292000D01*
X55000D02*X56300D01*
X57860Y297200D02*Y292000D01*
Y297200D02*X61110Y292000D01*
Y297200D02*Y292000D01*
X60000Y255000D02*X60500Y254500D01*
X58500Y255000D02*X60000D01*
X58000Y254500D02*X58500Y255000D01*
X58000Y254500D02*Y251500D01*
X58500Y251000D01*
X60000D01*
X60500Y251500D01*
Y252500D02*Y251500D01*
X60000Y253000D02*X60500Y252500D01*
X59000Y253000D02*X60000D01*
X61700Y255000D02*Y251000D01*
Y255000D02*X64200Y251000D01*
Y255000D02*Y251000D01*
X65900Y255000D02*Y251000D01*
X67200Y255000D02*X67900Y254300D01*
Y251700D01*
X67200Y251000D02*X67900Y251700D01*
X65400Y251000D02*X67200D01*
X65400Y255000D02*X67200D01*
X84000Y271500D02*X88000D01*
X86000Y273500D02*Y269500D01*
X82500Y25500D02*Y22500D01*
Y25500D02*X83200Y26500D01*
X84300D01*
X85000Y25500D01*
Y22500D01*
X82500Y24500D02*X85000D01*
X86200Y26500D02*X87200Y22500D01*
X88200Y26500D01*
X89400D02*X91400D01*
X91900Y26000D01*
Y25000D01*
X91400Y24500D02*X91900Y25000D01*
X89900Y24500D02*X91400D01*
X89900Y26500D02*Y22500D01*
X90700Y24500D02*X91900Y22500D01*
X93100Y26500D02*X94100D01*
X93600D02*Y22500D01*
X93100D02*X94100D01*
X97300Y26500D02*X97800Y26000D01*
X95800Y26500D02*X97300D01*
X95300Y26000D02*X95800Y26500D01*
X95300Y26000D02*Y25000D01*
X95800Y24500D01*
X97300D01*
X97800Y24000D01*
Y23000D01*
X97300Y22500D02*X97800Y23000D01*
X95800Y22500D02*X97300D01*
X95300Y23000D02*X95800Y22500D01*
X99500Y26500D02*Y22500D01*
X99000Y26500D02*X101000D01*
X101500Y26000D01*
Y25000D01*
X101000Y24500D02*X101500Y25000D01*
X99500Y24500D02*X101000D01*
X120000Y271500D02*X124000D01*
X176500Y234000D02*X180500D01*
X178500Y236000D02*Y232000D01*
X213500Y233500D02*X217500D01*
X215500Y296000D02*Y292500D01*
X216000Y292000D01*
X217000D01*
X217500Y292500D01*
Y296000D02*Y292500D01*
X219200Y293500D02*Y290500D01*
X218700Y294000D02*X219200Y293500D01*
X219700Y294000D01*
X220700D01*
X221200Y293500D01*
Y292500D01*
X220700Y292000D02*X221200Y292500D01*
X219700Y292000D02*X220700D01*
X219200Y292500D02*X219700Y292000D01*
X224400Y296000D02*Y292000D01*
X223900D02*X224400Y292500D01*
X222900Y292000D02*X223900D01*
X222400Y292500D02*X222900Y292000D01*
X222400Y293500D02*Y292500D01*
Y293500D02*X222900Y294000D01*
X223900D01*
X224400Y293500D01*
X227100Y294000D02*X227600Y293500D01*
X226100Y294000D02*X227100D01*
X225600Y293500D02*X226100Y294000D01*
X225600Y293500D02*Y292500D01*
X226100Y292000D01*
X227600Y294000D02*Y292500D01*
X228100Y292000D01*
X226100D02*X227100D01*
X227600Y292500D01*
X229800Y296000D02*Y292500D01*
X230300Y292000D01*
X229300Y294500D02*X230300D01*
X231800Y292000D02*X233300D01*
X231300Y292500D02*X231800Y292000D01*
X231300Y293500D02*Y292500D01*
Y293500D02*X231800Y294000D01*
X232800D01*
X233300Y293500D01*
X231300Y293000D02*X233300D01*
Y293500D02*Y293000D01*
X189700Y291500D02*X191000D01*
X189000Y292200D02*X189700Y291500D01*
X189000Y294800D02*Y292200D01*
Y294800D02*X189700Y295500D01*
X191000D01*
X193700Y293500D02*X194200Y293000D01*
X192700Y293500D02*X193700D01*
X192200Y293000D02*X192700Y293500D01*
X192200Y293000D02*Y292000D01*
X192700Y291500D01*
X194200Y293500D02*Y292000D01*
X194700Y291500D01*
X192700D02*X193700D01*
X194200Y292000D01*
X196400Y293000D02*Y291500D01*
Y293000D02*X196900Y293500D01*
X197900D01*
X195900D02*X196400Y293000D01*
X262282Y39923D02*Y33123D01*
Y39923D02*X264832Y36523D01*
X267382Y39923D01*
Y33123D01*
X269422Y39923D02*Y33123D01*
Y39923D02*X271972Y36523D01*
X274522Y39923D01*
Y33123D01*
X279112Y36523D02*X279962Y35673D01*
X277412Y36523D02*X279112D01*
X276562Y35673D02*X277412Y36523D01*
X276562Y35673D02*Y33973D01*
X277412Y33123D01*
X279962Y36523D02*Y33973D01*
X280812Y33123D01*
X277412D02*X279112D01*
X279962Y33973D01*
X283702Y35673D02*Y33123D01*
Y35673D02*X284552Y36523D01*
X286252D01*
X282852D02*X283702Y35673D01*
X288292Y39923D02*Y33123D01*
Y35673D02*X290842Y33123D01*
X288292Y35673D02*X289992Y37373D01*
X292882Y38223D02*Y38053D01*
Y35673D02*Y33123D01*
X263595Y51549D02*Y44749D01*
Y48149D02*X266995Y51549D01*
X263595Y48149D02*X266995Y44749D01*
X269035Y51549D02*Y44749D01*
Y51549D02*X273285Y44749D01*
Y51549D02*Y44749D01*
X275325Y47299D02*Y45599D01*
Y47299D02*X276175Y48149D01*
X277875D01*
X278725Y47299D01*
Y45599D01*
X277875Y44749D02*X278725Y45599D01*
X276175Y44749D02*X277875D01*
X275325Y45599D02*X276175Y44749D01*
X280765Y51549D02*Y45599D01*
X281615Y44749D01*
X285865Y48149D02*X286715Y47299D01*
X284165Y48149D02*X285865D01*
X283315Y47299D02*X284165Y48149D01*
X283315Y47299D02*Y45599D01*
X284165Y44749D01*
X286715Y48149D02*Y45599D01*
X287565Y44749D01*
X284165D02*X285865D01*
X286715Y45599D01*
X290455Y47299D02*Y44749D01*
Y47299D02*X291305Y48149D01*
X292155D01*
X293005Y47299D01*
Y44749D01*
X289605Y48149D02*X290455Y47299D01*
X270620Y93268D02*Y88268D01*
Y93268D02*X272495Y90768D01*
X274370Y93268D01*
Y88268D01*
X275870Y93268D02*Y88268D01*
Y90143D02*X277745Y88268D01*
X275870Y90143D02*X277120Y91393D01*
X279245Y92268D02*X280245Y93268D01*
Y88268D01*
X279245D02*X281120D01*
X203244Y87852D02*Y80327D01*
Y87852D02*X204319Y88927D01*
X205394D01*
X202169Y84627D02*X204319D01*
X208619Y83552D02*Y80327D01*
Y83552D02*X209694Y84627D01*
X210769D01*
X211844Y83552D01*
Y80327D01*
Y83552D02*X212919Y84627D01*
X213994D01*
X215069Y83552D01*
Y80327D01*
X207544Y84627D02*X208619Y83552D01*
X217649Y88927D02*Y80327D01*
X223024Y88927D02*Y80327D01*
X217649Y84627D02*X223024D01*
X228829D02*X229904Y83552D01*
X226679Y84627D02*X228829D01*
X225604Y83552D02*X226679Y84627D01*
X225604Y83552D02*Y81402D01*
X226679Y80327D01*
X229904Y84627D02*Y81402D01*
X230979Y80327D01*
X226679D02*X228829D01*
X229904Y81402D01*
X234634Y83552D02*Y80327D01*
Y83552D02*X235709Y84627D01*
X237859D01*
X233559D02*X234634Y83552D01*
X241514D02*Y80327D01*
Y83552D02*X242589Y84627D01*
X243664D01*
X244739Y83552D01*
Y80327D01*
Y83552D02*X245814Y84627D01*
X246889D01*
X247964Y83552D01*
Y80327D01*
X240439Y84627D02*X241514Y83552D01*
X250544D02*Y81402D01*
Y83552D02*X251619Y84627D01*
X253769D01*
X254844Y83552D01*
Y81402D01*
X253769Y80327D02*X254844Y81402D01*
X251619Y80327D02*X253769D01*
X250544Y81402D02*X251619Y80327D01*
X258499Y83552D02*Y80327D01*
Y83552D02*X259574Y84627D01*
X260649D01*
X261724Y83552D01*
Y80327D01*
X257424Y84627D02*X258499Y83552D01*
X264304Y84627D02*Y81402D01*
X265379Y80327D01*
X268604Y84627D02*Y78177D01*
X267529Y77102D02*X268604Y78177D01*
X265379Y77102D02*X267529D01*
X264304Y78177D02*X265379Y77102D01*
Y80327D02*X267529D01*
X268604Y81402D01*
X184540Y72785D02*Y71685D01*
X185640Y72785D02*Y71685D01*
X186960Y72785D02*Y68385D01*
Y72785D02*X189710Y68385D01*
Y72785D02*Y68385D01*
X191030Y70035D02*Y68935D01*
Y70035D02*X191580Y70585D01*
X192680D01*
X193230Y70035D01*
Y68935D01*
X192680Y68385D02*X193230Y68935D01*
X191580Y68385D02*X192680D01*
X191030Y68935D02*X191580Y68385D01*
X196530Y72785D02*Y68385D01*
Y72785D02*X198180Y70585D01*
X199830Y72785D01*
Y68385D01*
X201150Y70035D02*Y68935D01*
Y70035D02*X201700Y70585D01*
X202800D01*
X203350Y70035D01*
Y68935D01*
X202800Y68385D02*X203350Y68935D01*
X201700Y68385D02*X202800D01*
X201150Y68935D02*X201700Y68385D01*
X205220Y70035D02*Y68385D01*
Y70035D02*X205770Y70585D01*
X206870D01*
X204670D02*X205220Y70035D01*
X208740Y68385D02*X210390D01*
X208190Y68935D02*X208740Y68385D01*
X208190Y70035D02*Y68935D01*
Y70035D02*X208740Y70585D01*
X209840D01*
X210390Y70035D01*
X208190Y69485D02*X210390D01*
Y70035D02*Y69485D01*
X213690Y68385D02*X215890D01*
X216440Y68935D01*
Y70255D02*Y68935D01*
X215890Y70805D02*X216440Y70255D01*
X214240Y70805D02*X215890D01*
X214240Y72785D02*Y68385D01*
X213690Y72785D02*X215890D01*
X216440Y72235D01*
Y71355D01*
X215890Y70805D02*X216440Y71355D01*
X217760Y72785D02*Y68935D01*
X218310Y68385D01*
X219410Y71685D02*Y71575D01*
Y70035D02*Y68385D01*
X221060Y70035D02*Y68385D01*
Y70035D02*X221610Y70585D01*
X222160D01*
X222710Y70035D01*
Y68385D01*
X220510Y70585D02*X221060Y70035D01*
X226230Y72785D02*Y68385D01*
X225680D02*X226230Y68935D01*
X224580Y68385D02*X225680D01*
X224030Y68935D02*X224580Y68385D01*
X224030Y70035D02*Y68935D01*
Y70035D02*X224580Y70585D01*
X225680D01*
X226230Y70035D01*
X230080Y72785D02*Y68385D01*
X231510Y72785D02*X232280Y72015D01*
Y69155D01*
X231510Y68385D02*X232280Y69155D01*
X229530Y68385D02*X231510D01*
X229530Y72785D02*X231510D01*
X235250Y70585D02*X235800Y70035D01*
X234150Y70585D02*X235250D01*
X233600Y70035D02*X234150Y70585D01*
X233600Y70035D02*Y68935D01*
X234150Y68385D01*
X235800Y70585D02*Y68935D01*
X236350Y68385D01*
X234150D02*X235250D01*
X235800Y68935D01*
X238220Y72785D02*Y68935D01*
X238770Y68385D01*
X237670Y71135D02*X238770D01*
X240420Y68385D02*X242070D01*
X239870Y68935D02*X240420Y68385D01*
X239870Y70035D02*Y68935D01*
Y70035D02*X240420Y70585D01*
X241520D01*
X242070Y70035D01*
X239870Y69485D02*X242070D01*
Y70035D02*Y69485D01*
X243940Y68385D02*X245590D01*
X246140Y68935D01*
X245590Y69485D02*X246140Y68935D01*
X243940Y69485D02*X245590D01*
X243390Y70035D02*X243940Y69485D01*
X243390Y70035D02*X243940Y70585D01*
X245590D01*
X246140Y70035D01*
X243390Y68935D02*X243940Y68385D01*
X249440Y72785D02*Y70585D01*
X249990Y68385D01*
X251090Y70585D01*
X252190Y68385D01*
X252740Y70585D01*
Y72785D02*Y70585D01*
X254060Y71685D02*Y71575D01*
Y70035D02*Y68385D01*
X255710Y72785D02*Y68935D01*
X256260Y68385D01*
X255160Y71135D02*X256260D01*
X257360Y72785D02*Y68385D01*
Y70035D02*X257910Y70585D01*
X259010D01*
X259560Y70035D01*
Y68385D01*
X262860Y72785D02*Y68385D01*
X265060D01*
X266380Y70035D02*Y68935D01*
Y70035D02*X266930Y70585D01*
X268030D01*
X268580Y70035D01*
Y68935D01*
X268030Y68385D02*X268580Y68935D01*
X266930Y68385D02*X268030D01*
X266380Y68935D02*X266930Y68385D01*
X270450Y70585D02*X272100D01*
X269900Y70035D02*X270450Y70585D01*
X269900Y70035D02*Y68935D01*
X270450Y68385D01*
X272100D01*
X275070Y70585D02*X275620Y70035D01*
X273970Y70585D02*X275070D01*
X273420Y70035D02*X273970Y70585D01*
X273420Y70035D02*Y68935D01*
X273970Y68385D01*
X275620Y70585D02*Y68935D01*
X276170Y68385D01*
X273970D02*X275070D01*
X275620Y68935D01*
X277490Y72785D02*Y68935D01*
X278040Y68385D01*
X281120Y72785D02*X283320D01*
X283870Y72235D01*
Y71135D01*
X283320Y70585D02*X283870Y71135D01*
X281670Y70585D02*X283320D01*
X281670Y72785D02*Y68385D01*
X282550Y70585D02*X283870Y68385D01*
X286840Y70585D02*X287390Y70035D01*
X285740Y70585D02*X286840D01*
X285190Y70035D02*X285740Y70585D01*
X285190Y70035D02*Y68935D01*
X285740Y68385D01*
X287390Y70585D02*Y68935D01*
X287940Y68385D01*
X285740D02*X286840D01*
X287390Y68935D01*
X291460Y72785D02*Y68385D01*
X290910D02*X291460Y68935D01*
X289810Y68385D02*X290910D01*
X289260Y68935D02*X289810Y68385D01*
X289260Y70035D02*Y68935D01*
Y70035D02*X289810Y70585D01*
X290910D01*
X291460Y70035D01*
X292780Y71685D02*Y71575D01*
Y70035D02*Y68385D01*
X293880Y70035D02*Y68935D01*
Y70035D02*X294430Y70585D01*
X295530D01*
X296080Y70035D01*
Y68935D01*
X295530Y68385D02*X296080Y68935D01*
X294430Y68385D02*X295530D01*
X293880Y68935D02*X294430Y68385D01*
X297400Y72785D02*Y71685D01*
X298500Y72785D02*Y71685D01*
X14000Y136000D02*X214000D01*
Y206000D02*Y136000D01*
X14000Y206000D02*X214000D01*
X14000Y166000D02*Y136000D01*
Y206000D02*Y176000D01*
Y166000D02*G75*G03X14000Y176000I0J5000D01*G01*
G54D425*X138000Y217000D02*Y235000D01*
X148000Y217000D02*Y235000D01*
X158000Y217000D02*Y235000D01*
G54D426*X128000D02*X168000D01*
Y272500D01*
X128000D01*
Y235000D01*
Y272500D02*X168000D01*
Y285000D01*
X166500D01*
Y292000D01*
X168000D01*
Y296000D01*
X128000D01*
Y292000D01*
X129500D01*
Y285000D01*
X128000D01*
Y272500D01*
G54D423*X17500Y240000D02*X25000D01*
X40000D02*X47500D01*
X25000Y242500D02*X40000D01*
Y237500D01*
X25000D02*X40000D01*
X25000Y242500D02*Y237500D01*
X88500Y265000D02*G75*G03X88500Y265000I15000J0D01*G01*
X39000Y218500D02*X49000D01*
X19000D02*X29000D01*
X39000D02*X29000Y213500D01*
Y223500D02*Y213500D01*
Y223500D02*X39000Y218500D01*
Y223500D02*Y213500D01*
X67500Y245000D02*Y235000D01*
Y225000D02*Y215000D01*
Y235000D02*X72500Y225000D01*
X62500D02*X72500D01*
X62500D02*X67500Y235000D01*
X62500D02*X72500D01*
X37500Y280000D02*Y270000D01*
X47500D01*
Y280000D01*
X37500D01*
Y270000D02*X47500D01*
Y280000D01*
X57500D02*Y270000D01*
X67500D01*
Y280000D01*
X57500D01*
Y270000D02*X67500D01*
Y280000D01*
X120000Y227500D02*Y237500D01*
X90000D01*
Y227500D01*
X120000D01*
X230000Y247000D02*X237500D01*
X252500D02*X260000D01*
X237500Y249500D02*X252500D01*
Y244500D01*
X237500D02*X252500D01*
X237500Y249500D02*Y244500D01*
X258000Y159500D02*X248000Y149500D01*
X258000Y174500D02*Y159500D01*
X248000Y184500D02*X258000Y174500D01*
X233000Y184500D02*X248000D01*
X223000Y174500D02*X233000Y184500D01*
X223000Y174500D02*Y159500D01*
X233000Y149500D02*X223000Y159500D01*
X225500Y149500D02*X235500D01*
Y139500D01*
X225500Y149500D02*Y139500D01*
Y149500D02*X255500D01*
Y139500D01*
X225500D02*X255500D01*
X183500Y261000D02*Y253500D01*
Y283500D02*Y276000D01*
X181000D02*Y261000D01*
Y276000D02*X186000D01*
Y261000D01*
X181000D02*X186000D01*
X181500Y226500D02*G75*G03X181500Y226500I15000J0D01*G01*
X257500Y116000D02*Y126000D01*
X227500D01*
Y116000D01*
X257500D01*
X73500Y120500D02*X81000D01*
X96000D02*X103500D01*
X81000Y123000D02*X96000D01*
Y118000D01*
X81000D02*X96000D01*
X81000Y123000D02*Y118000D01*
X13500Y100000D02*X173500D01*
X13500D02*Y30000D01*
X173500D01*
Y100000D02*Y70000D01*
Y60000D02*Y30000D01*
Y70000D02*G75*G03X173500Y60000I0J-5000D01*G01*
X13500Y120000D02*X63500D01*
Y130000D02*Y120000D01*
X13500Y130000D02*X63500D01*
X13500D02*Y120000D01*
X23500Y130000D02*Y120000D01*
X13500Y130000D02*X23500D01*
X174500Y102500D02*Y112500D01*
X144500D01*
Y102500D01*
X174500D01*
X142000Y117000D02*Y127000D01*
X112000D01*
Y117000D01*
X142000D01*
X280000Y262500D02*Y102500D01*
X270000Y262500D02*X280000D01*
X270000D02*Y102500D01*
X280000D01*
X270000Y112500D02*X280000D01*
X270000D02*Y102500D01*
X175000Y20000D02*X265000D01*
X175000D02*Y10000D01*
X265000D01*
Y20000D02*Y10000D01*
X255000Y20000D02*Y10000D01*
X265000D01*
X60000Y12500D02*X120000D01*
Y22500D02*Y12500D01*
X60000Y22500D02*X120000D01*
X60000D02*Y12500D01*
X70000Y22500D02*Y12500D01*
X60000Y22500D02*X70000D01*
X222500Y25500D02*Y35500D01*
X192500D01*
Y25500D01*
X222500D01*
X193000Y279000D02*X223000D01*
Y289000D02*Y279000D01*
X193000Y289000D02*X223000D01*
X193000D02*Y279000D01*
X203000Y289000D02*Y279000D01*
X193000Y289000D02*X203000D01*
X7000Y150000D02*Y149000D01*
Y149500D02*X11000D01*
Y150000D02*Y149000D01*
Y153200D02*Y151900D01*
X10300Y151200D02*X11000Y151900D01*
X7700Y151200D02*X10300D01*
X7700D02*X7000Y151900D01*
Y153200D02*Y151900D01*
X7500Y154400D02*X7000Y154900D01*
Y156400D02*Y154900D01*
Y156400D02*X7500Y156900D01*
X8500D01*
X11000Y154400D02*X8500Y156900D01*
X11000D02*Y154400D01*
X29500Y249500D02*Y245500D01*
Y249500D02*X31500D01*
X29500Y247700D02*X31000D01*
X32700Y248700D02*X33500Y249500D01*
Y245500D01*
X32700D02*X34200D01*
X7500Y78500D02*Y77500D01*
Y78000D02*X11500D01*
Y78500D02*Y77500D01*
Y81700D02*Y80400D01*
X10800Y79700D02*X11500Y80400D01*
X8200Y79700D02*X10800D01*
X8200D02*X7500Y80400D01*
Y81700D02*Y80400D01*
X10000Y82900D02*X7500Y84900D01*
X10000Y85400D02*Y82900D01*
X7500Y84900D02*X11500D01*
X15200Y117500D02*X16000D01*
Y114000D01*
X15500Y113500D02*X16000Y114000D01*
X15000Y113500D02*X15500D01*
X14500Y114000D02*X15000Y113500D01*
X14500Y114500D02*Y114000D01*
X17700Y117500D02*Y113500D01*
X17200Y117500D02*X19200D01*
X19700Y117000D01*
Y116000D01*
X19200Y115500D02*X19700Y116000D01*
X17700Y115500D02*X19200D01*
X20900Y117000D02*X21400Y117500D01*
X22400D01*
X22900Y117000D01*
X22400Y113500D02*X22900Y114000D01*
X21400Y113500D02*X22400D01*
X20900Y114000D02*X21400Y113500D01*
Y115700D02*X22400D01*
X22900Y117000D02*Y116200D01*
Y115200D02*Y114000D01*
Y115200D02*X22400Y115700D01*
X22900Y116200D02*X22400Y115700D01*
X34500Y226500D02*Y222500D01*
X35800Y226500D02*X36500Y225800D01*
Y223200D01*
X35800Y222500D02*X36500Y223200D01*
X34000Y222500D02*X35800D01*
X34000Y226500D02*X35800D01*
X37700Y226000D02*X38200Y226500D01*
X39700D01*
X40200Y226000D01*
Y225000D01*
X37700Y222500D02*X40200Y225000D01*
X37700Y222500D02*X40200D01*
X80050Y229900D02*X82000D01*
X79000Y230950D02*X80050Y229900D01*
X79000Y234850D02*Y230950D01*
Y234850D02*X80050Y235900D01*
X82000D01*
X83800Y235150D02*X84550Y235900D01*
X86800D01*
X87550Y235150D01*
Y233650D01*
X83800Y229900D02*X87550Y233650D01*
X83800Y229900D02*X87550D01*
X90500Y130000D02*X92500D01*
X93000Y129500D01*
Y128500D01*
X92500Y128000D02*X93000Y128500D01*
X91000Y128000D02*X92500D01*
X91000Y130000D02*Y126000D01*
X91800Y128000D02*X93000Y126000D01*
X94200Y129200D02*X95000Y130000D01*
Y126000D01*
X94200D02*X95700D01*
X123200Y20000D02*X124000D01*
Y16500D01*
X123500Y16000D02*X124000Y16500D01*
X123000Y16000D02*X123500D01*
X122500Y16500D02*X123000Y16000D01*
X122500Y17000D02*Y16500D01*
X125700Y20000D02*Y16000D01*
X125200Y20000D02*X127200D01*
X127700Y19500D01*
Y18500D01*
X127200Y18000D02*X127700Y18500D01*
X125700Y18000D02*X127200D01*
X128900Y19500D02*X129400Y20000D01*
X130900D01*
X131400Y19500D01*
Y18500D01*
X128900Y16000D02*X131400Y18500D01*
X128900Y16000D02*X131400D01*
X116050Y127900D02*X118000D01*
X115000Y128950D02*X116050Y127900D01*
X115000Y132850D02*Y128950D01*
Y132850D02*X116050Y133900D01*
X118000D01*
X119800Y130150D02*X122800Y133900D01*
X119800Y130150D02*X123550D01*
X122800Y133900D02*Y127900D01*
X265000Y107500D02*X269000D01*
Y109500D02*Y107500D01*
Y112700D02*Y111400D01*
X268300Y110700D02*X269000Y111400D01*
X265700Y110700D02*X268300D01*
X265700D02*X265000Y111400D01*
Y112700D02*Y111400D01*
Y114400D02*X269000D01*
X265000Y115700D02*X265700Y116400D01*
X268300D01*
X269000Y115700D02*X268300Y116400D01*
X269000Y115700D02*Y113900D01*
X265000Y115700D02*Y113900D01*
X265800Y117600D02*X265000Y118400D01*
X269000D01*
Y119100D02*Y117600D01*
X255000Y27500D02*X256000D01*
X255500D02*Y23500D01*
X255000D02*X256000D01*
X257900D02*X259200D01*
X257200Y24200D02*X257900Y23500D01*
X257200Y26800D02*Y24200D01*
Y26800D02*X257900Y27500D01*
X259200D01*
X260400Y27000D02*X260900Y27500D01*
X261900D01*
X262400Y27000D01*
X261900Y23500D02*X262400Y24000D01*
X260900Y23500D02*X261900D01*
X260400Y24000D02*X260900Y23500D01*
Y25700D02*X261900D01*
X262400Y27000D02*Y26200D01*
Y25200D02*Y24000D01*
Y25200D02*X261900Y25700D01*
X262400Y26200D02*X261900Y25700D01*
X182550Y27900D02*X184500D01*
X181500Y28950D02*X182550Y27900D01*
X181500Y32850D02*Y28950D01*
Y32850D02*X182550Y33900D01*
X184500D01*
X186300D02*X189300D01*
X186300D02*Y30900D01*
X187050Y31650D01*
X188550D01*
X189300Y30900D01*
Y28650D01*
X188550Y27900D02*X189300Y28650D01*
X187050Y27900D02*X188550D01*
X186300Y28650D02*X187050Y27900D01*
X146550Y113900D02*X148500D01*
X145500Y114950D02*X146550Y113900D01*
X145500Y118850D02*Y114950D01*
Y118850D02*X146550Y119900D01*
X148500D01*
X151050Y113900D02*X154050Y119900D01*
X150300D02*X154050D01*
X247000Y256500D02*X249000D01*
X249500Y256000D01*
Y255000D01*
X249000Y254500D02*X249500Y255000D01*
X247500Y254500D02*X249000D01*
X247500Y256500D02*Y252500D01*
X248300Y254500D02*X249500Y252500D01*
X250700Y256000D02*X251200Y256500D01*
X252700D01*
X253200Y256000D01*
Y255000D01*
X250700Y252500D02*X253200Y255000D01*
X250700Y252500D02*X253200D01*
X174000Y265500D02*X178000D01*
X174000Y267500D02*Y265500D01*
X175800Y267000D02*Y265500D01*
X174500Y268700D02*X174000Y269200D01*
Y270700D02*Y269200D01*
Y270700D02*X174500Y271200D01*
X175500D01*
X178000Y268700D02*X175500Y271200D01*
X178000D02*Y268700D01*
X212200Y236500D02*X213500D01*
X211500Y237200D02*X212200Y236500D01*
X211500Y239800D02*Y237200D01*
Y239800D02*X212200Y240500D01*
X213500D01*
X214700Y240000D02*X215200Y240500D01*
X216200D01*
X216700Y240000D01*
X216200Y236500D02*X216700Y237000D01*
X215200Y236500D02*X216200D01*
X214700Y237000D02*X215200Y236500D01*
Y238700D02*X216200D01*
X216700Y240000D02*Y239200D01*
Y238200D02*Y237000D01*
Y238200D02*X216200Y238700D01*
X216700Y239200D02*X216200Y238700D01*
X116700Y277500D02*X118000D01*
X116000Y278200D02*X116700Y277500D01*
X116000Y280800D02*Y278200D01*
Y280800D02*X116700Y281500D01*
X118000D01*
X119200Y280700D02*X120000Y281500D01*
Y277500D01*
X119200D02*X120700D01*
X122500Y254000D02*Y253000D01*
Y253500D02*X126500D01*
Y254000D02*Y253000D01*
Y257200D02*Y255900D01*
X125800Y255200D02*X126500Y255900D01*
X123200Y255200D02*X125800D01*
X123200D02*X122500Y255900D01*
Y257200D02*Y255900D01*
X123300Y258400D02*X122500Y259200D01*
X126500D01*
Y259900D02*Y258400D01*
X194200Y276000D02*X195000D01*
Y272500D01*
X194500Y272000D02*X195000Y272500D01*
X194000Y272000D02*X194500D01*
X193500Y272500D02*X194000Y272000D01*
X193500Y273000D02*Y272500D01*
X196700Y276000D02*Y272000D01*
X196200Y276000D02*X198200D01*
X198700Y275500D01*
Y274500D01*
X198200Y274000D02*X198700Y274500D01*
X196700Y274000D02*X198200D01*
X199900Y273500D02*X201900Y276000D01*
X199900Y273500D02*X202400D01*
X201900Y276000D02*Y272000D01*
X74000Y225000D02*X78000D01*
Y223700D02*X77300Y223000D01*
X74700D02*X77300D01*
X74000Y223700D02*X74700Y223000D01*
X74000Y225500D02*Y223700D01*
X78000Y225500D02*Y223700D01*
X77200Y221800D02*X78000Y221000D01*
X74000D02*X78000D01*
X74000Y221800D02*Y220300D01*
X220500Y140000D02*X224500Y141000D01*
X220500Y142000D01*
Y145200D02*Y143200D01*
Y145200D02*X221000Y145700D01*
X222000D01*
X222500Y145200D02*X222000Y145700D01*
X222500Y145200D02*Y143700D01*
X220500D02*X224500D01*
X222500Y144500D02*X224500Y145700D01*
X221300Y146900D02*X220500Y147700D01*
X224500D01*
Y148400D02*Y146900D01*
X218050Y118900D02*X220000D01*
X217000Y119950D02*X218050Y118900D01*
X217000Y123850D02*Y119950D01*
Y123850D02*X218050Y124900D01*
X220000D01*
X224050D02*X224800Y124150D01*
X222550Y124900D02*X224050D01*
X221800Y124150D02*X222550Y124900D01*
X221800Y124150D02*Y119650D01*
X222550Y118900D01*
X224050Y122200D02*X224800Y121450D01*
X221800Y122200D02*X224050D01*
X222550Y118900D02*X224050D01*
X224800Y119650D01*
Y121450D02*Y119650D01*
X40700Y295500D02*X41500D01*
Y292000D01*
X41000Y291500D02*X41500Y292000D01*
X40500Y291500D02*X41000D01*
X40000Y292000D02*X40500Y291500D01*
X40000Y292500D02*Y292000D01*
X43200Y295500D02*Y291500D01*
X42700Y295500D02*X44700D01*
X45200Y295000D01*
Y294000D01*
X44700Y293500D02*X45200Y294000D01*
X43200Y293500D02*X44700D01*
X46400Y294700D02*X47200Y295500D01*
Y291500D01*
X46400D02*X47900D01*
M02*
