M48
INCH
T67C0.145
T66C0.050
T65C0.078
T64C0.070
T63C0.040
T62C0.130
T61C0.030
T60C0.035
T59C0.038
T58C0.060
T57C0.028
%
T57
X014900Y014100
X015900Y014100
X016900Y014100
X017900Y014100
X019900Y014100
X020900Y014100
X020900Y020100
X019900Y020100
X018900Y020100
X017900Y020100
X016900Y020100
X015900Y020100
X014900Y020100
X013900Y020100
X018900Y014100
X009900Y014100
X010900Y014100
X011900Y014100
X012900Y014100
X013900Y014100
X004900Y014100
X005900Y014100
X006900Y014100
X007900Y014100
X001900Y014100
X002900Y014100
X003900Y014100
X008900Y014100
X012900Y020100
X011900Y020100
X010900Y020100
X009900Y020100
X008900Y020100
X007900Y020100
X006900Y020100
X005900Y020100
X004900Y020100
X003900Y020100
X002900Y020100
X001900Y020100
X016850Y009500
X015850Y009500
X014850Y009500
X013850Y009500
X012850Y009500
X011850Y009500
X010850Y009500
X009850Y009500
X008850Y009500
X007850Y009500
X006850Y009500
X005850Y009500
X004850Y009500
X003850Y009500
X002850Y009500
X001850Y009500
X001850Y003500
X002850Y003500
X003850Y003500
X004850Y003500
X005850Y003500
X006850Y003500
X007850Y003500
X008850Y003500
X009850Y003500
X010850Y003500
X011850Y003500
X012850Y003500
X013850Y003500
X014850Y003500
X015850Y003500
X016850Y003500
T61
X023000Y024700
X018900Y022650
X020400Y022650
X026000Y024700
X007350Y012050
X010350Y012050
X009600Y026500
X011100Y026500
T60
X016950Y010750
X014950Y010750
X025250Y012100
X023250Y012100
X013700Y012200
X011700Y012200
X011500Y023250
X009500Y023250
X021750Y003050
X019750Y003050
X029100Y008100
X021900Y015600
X021900Y020400
X020550Y008100
T59
X025050Y014450
X024050Y014450
X023050Y014450
X027500Y010750
X027500Y011750
X027500Y012750
X027500Y013750
X027500Y014750
X027500Y015750
X027500Y016750
X027500Y017750
X027500Y018750
X027500Y019750
X027500Y020750
X027500Y021750
X027500Y022750
X027500Y023750
X027500Y024750
X027500Y025750
X019800Y028400
X020800Y028400
X021800Y028400
X001850Y012500
X002850Y012500
X003850Y012500
X004850Y012500
X005850Y012500
X026000Y001500
X025000Y001500
X024000Y001500
X023000Y001500
X022000Y001500
X021000Y001500
X020000Y001500
X019000Y001500
X018000Y001500
X006500Y001750
X007500Y001750
X008500Y001750
X009500Y001750
X010500Y001750
X011500Y001750
T63
X018350Y025350
X018350Y028350
X004750Y024000
X001750Y024000
T66
X001900Y021850
T58
X013800Y021700
X015800Y021700
X014800Y021700
X004900Y021850
T64
X006750Y024500
X006750Y021500
T65
X006250Y027500
X004250Y027500
T62
X014800Y028400
T67
X028750Y028750
X028750Y001250
X001250Y028750
X001250Y001250
M30
